<?xml version="1.0" encoding="UTF-8"?>
<svg width="700pt" height="700pt" version="1.1" viewBox="0 0 700 700" xmlns="http://www.w3.org/2000/svg">
 <g>
  <path d="m367.74 350.01h174.51c23.664 0.33594 23.664-35.336 0-35h-174.51c-9.8672-0.14062-17.895 7.9062-17.742 17.668 0.17578 9.7578 8.0898 17.465 17.742 17.332z"/>
  <path d="m367.74 455.01h174.51c23.664 0.33594 23.664-35.336 0-35h-174.51c-9.8672-0.14062-17.895 7.9062-17.742 17.668 0.17578 9.7578 8.0898 17.465 17.742 17.332z"/>
  <path d="m315 297.5c0-4.6406-1.8438-9.0938-5.125-12.375s-7.7344-5.125-12.375-5.125h-140c-4.6406 0-9.0938 1.8438-12.375 5.125s-5.125 7.7344-5.125 12.375v175c0 4.6406 1.8438 9.0938 5.125 12.375s7.7344 5.125 12.375 5.125h140c4.6406 0 9.0938-1.8438 12.375-5.125s5.125-7.7344 5.125-12.375zm-35 17.5v140h-105v-140z"/>
  <path d="m560 87.5c0-4.6406-1.8438-9.0938-5.125-12.375s-7.7344-5.125-12.375-5.125h-385c-4.6406 0-9.0938 1.8438-12.375 5.125s-5.125 7.7344-5.125 12.375v140c0 4.6406 1.8438 9.0938 5.125 12.375s7.7344 5.125 12.375 5.125h385c4.6406 0 9.0938-1.8438 12.375-5.125s5.125-7.7344 5.125-12.375zm-35 17.5v105h-350v-105z"/>
 </g>
</svg>
