<?xml version="1.0" encoding="UTF-8"?>
<svg width="700pt" height="700pt" version="1.1" viewBox="0 0 700 700" xmlns="http://www.w3.org/2000/svg" xmlns:xlink="http://www.w3.org/1999/xlink">
 <defs>
  <symbol id="aa" overflow="visible">
   <path d="m7.4062-2.2344c0.73828 0 1.3008-0.26562 1.6875-0.79688 0.39453-0.53906 0.59375-1.3281 0.59375-2.3594s-0.19922-1.8125-0.59375-2.3438c-0.38672-0.53906-0.94922-0.8125-1.6875-0.8125-0.74219 0-1.3086 0.27344-1.7031 0.8125-0.39844 0.54297-0.59375 1.3242-0.59375 2.3438 0 1.0234 0.19531 1.8047 0.59375 2.3438 0.39453 0.54297 0.96094 0.8125 1.7031 0.8125zm-2.2969-6.9844c0.47656-0.63281 1.0039-1.0977 1.5781-1.3906 0.58203-0.30078 1.25-0.45312 2-0.45312 1.332 0 2.4258 0.53125 3.2812 1.5938 0.85156 1.0547 1.2812 2.4141 1.2812 4.0781 0 1.668-0.42969 3.0312-1.2812 4.0938-0.85547 1.0547-1.9492 1.5781-3.2812 1.5781-0.75 0-1.418-0.15234-2-0.45312-0.57422-0.30078-1.1016-0.76562-1.5781-1.3906v1.5625h-3.4531v-15h3.4531z"/>
  </symbol>
  <symbol id="u" overflow="visible">
   <path d="m0.23438-10.797h3.4531l2.9062 7.3281 2.4688-7.3281h3.4531l-4.5469 11.812c-0.44922 1.207-0.98047 2.0508-1.5938 2.5312-0.60547 0.47656-1.4062 0.71875-2.4062 0.71875h-1.9844v-2.2656h1.0781c0.58203 0 1.0039-0.09375 1.2656-0.28125 0.26953-0.1875 0.47656-0.52344 0.625-1l0.09375-0.29688z"/>
  </symbol>
  <symbol id="m" overflow="visible">
   <path d="m5.5312-11.594v8.7812h1.3281c1.5078 0 2.6641-0.375 3.4688-1.125 0.80078-0.75 1.2031-1.8438 1.2031-3.2812 0-1.4258-0.40234-2.5078-1.2031-3.25-0.79297-0.75-1.9492-1.125-3.4688-1.125zm-3.7188-2.7969h3.9219c2.1758 0 3.8008 0.15625 4.875 0.46875 1.0703 0.30469 1.9883 0.82812 2.75 1.5781 0.67578 0.64844 1.1758 1.3984 1.5 2.25 0.33203 0.84375 0.5 1.8047 0.5 2.875 0 1.0938-0.16797 2.0703-0.5 2.9219-0.32422 0.84375-0.82422 1.5938-1.5 2.25-0.77344 0.74219-1.6992 1.2656-2.7812 1.5781-1.0742 0.3125-2.6875 0.46875-4.8438 0.46875h-3.9219z"/>
  </symbol>
  <symbol id="l" overflow="visible">
   <path d="m1.6562-10.797h3.4531v10.797h-3.4531zm0-4.2031h3.4531v2.8125h-3.4531z"/>
  </symbol>
  <symbol id="b" overflow="visible">
   <path d="m12.438-5.4219v0.96875h-8.0625c0.082031 0.8125 0.375 1.4219 0.875 1.8281s1.1953 0.60938 2.0938 0.60938c0.72656 0 1.4727-0.10156 2.2344-0.3125 0.75781-0.21875 1.5391-0.54688 2.3438-0.98438v2.6562c-0.8125 0.3125-1.6328 0.54688-2.4531 0.70312-0.8125 0.15625-1.625 0.23438-2.4375 0.23438-1.9609 0-3.4805-0.49219-4.5625-1.4844-1.0859-1-1.625-2.3945-1.625-4.1875 0-1.7578 0.53125-3.1445 1.5938-4.1562 1.0703-1.0078 2.5391-1.5156 4.4062-1.5156 1.6953 0 3.0508 0.51172 4.0625 1.5312 1.0195 1.0234 1.5312 2.3906 1.5312 4.1094zm-3.5469-1.1562c0-0.65625-0.19531-1.1797-0.57812-1.5781-0.375-0.40625-0.875-0.60938-1.5-0.60938-0.66797 0-1.2109 0.1875-1.625 0.5625-0.41797 0.375-0.67969 0.91797-0.78125 1.625z"/>
  </symbol>
  <symbol id="d" overflow="visible">
   <path d="m9-1.8281c-0.46875 0.625-0.99219 1.0898-1.5625 1.3906-0.57422 0.29297-1.2344 0.4375-1.9844 0.4375-1.3242 0-2.418-0.51562-3.2812-1.5469-0.85547-1.0391-1.2812-2.3672-1.2812-3.9844 0-1.6133 0.42578-2.9375 1.2812-3.9688 0.86328-1.0312 1.957-1.5469 3.2812-1.5469 0.75 0 1.4102 0.15234 1.9844 0.45312 0.57031 0.29297 1.0938 0.75781 1.5625 1.3906v-1.5938h3.4844v9.7031c0 1.7383-0.55469 3.0664-1.6562 3.9844-1.0938 0.91406-2.6836 1.375-4.7656 1.375-0.67969 0-1.3359-0.054687-1.9688-0.15625-0.625-0.10547-1.2578-0.26172-1.8906-0.46875v-2.7031c0.60156 0.35156 1.1914 0.61328 1.7656 0.78125 0.58203 0.17578 1.1719 0.26562 1.7656 0.26562 1.125 0 1.9453-0.25 2.4688-0.75 0.53125-0.5 0.79688-1.2734 0.79688-2.3281zm-2.2656-6.7188c-0.71875 0-1.2773 0.26562-1.6719 0.79688-0.39844 0.52344-0.59375 1.2617-0.59375 2.2188 0 0.99219 0.19141 1.7461 0.57812 2.2656 0.38281 0.51172 0.94531 0.76562 1.6875 0.76562 0.71875 0 1.2734-0.26562 1.6719-0.79688 0.39453-0.53125 0.59375-1.2734 0.59375-2.2344 0-0.95703-0.19922-1.6953-0.59375-2.2188-0.39844-0.53125-0.95312-0.79688-1.6719-0.79688z"/>
  </symbol>
  <symbol id="a" overflow="visible">
   <path d="m6.7969-8.5938c-0.76172 0-1.3438 0.27734-1.75 0.82812-0.39844 0.55469-0.59375 1.3438-0.59375 2.375s0.19531 1.8242 0.59375 2.375c0.40625 0.55469 0.98828 0.82812 1.75 0.82812 0.75 0 1.3203-0.27344 1.7188-0.82812 0.40625-0.55078 0.60938-1.3438 0.60938-2.375s-0.20312-1.8203-0.60938-2.375c-0.39844-0.55078-0.96875-0.82812-1.7188-0.82812zm0-2.4688c1.8516 0 3.3008 0.50781 4.3438 1.5156 1.0508 1 1.5781 2.3867 1.5781 4.1562 0 1.7734-0.52734 3.1641-1.5781 4.1719-1.043 1-2.4922 1.5-4.3438 1.5-1.8672 0-3.3242-0.5-4.375-1.5-1.0547-1.0078-1.5781-2.3984-1.5781-4.1719 0-1.7695 0.52344-3.1562 1.5781-4.1562 1.0508-1.0078 2.5078-1.5156 4.375-1.5156z"/>
  </symbol>
  <symbol id="k" overflow="visible">
   <path d="m10.547-2.625h-5.7969l-0.92188 2.625h-3.7344l5.3281-14.391h4.4375l5.3281 14.391h-3.7344zm-4.875-2.6719h3.9375l-1.9688-5.7188z"/>
  </symbol>
  <symbol id="j" overflow="visible">
   <path d="m1.6562-15h3.4531v15h-3.4531z"/>
  </symbol>
  <symbol id="i" overflow="visible">
   <path d="m1.6562-10.797h3.4531v10.609c0 1.4453-0.35156 2.5508-1.0469 3.3125-0.6875 0.75781-1.6953 1.1406-3.0156 1.1406h-1.7031v-2.2656h0.59375c0.65625 0 1.1016-0.15234 1.3438-0.45312 0.25-0.29297 0.375-0.87109 0.375-1.7344zm0-4.2031h3.4531v2.8125h-3.4531z"/>
  </symbol>
  <symbol id="z" overflow="visible">
   <path d="m6.5-4.8594c-0.71875 0-1.2617 0.125-1.625 0.375-0.36719 0.24219-0.54688 0.60156-0.54688 1.0781 0 0.42969 0.14453 0.76562 0.4375 1.0156 0.28906 0.25 0.69531 0.375 1.2188 0.375 0.65625 0 1.2031-0.22656 1.6406-0.6875 0.44531-0.46875 0.67188-1.0547 0.67188-1.7656v-0.39062zm5.2812-1.2969v6.1562h-3.4844v-1.5938c-0.46875 0.64844-0.99609 1.1211-1.5781 1.4219-0.57422 0.30078-1.2734 0.45312-2.0938 0.45312-1.125 0-2.0391-0.32031-2.7344-0.96875-0.69922-0.65625-1.0469-1.5039-1.0469-2.5469 0-1.2695 0.4375-2.2031 1.3125-2.7969s2.2422-0.89062 4.1094-0.89062h2.0312v-0.26562c0-0.53906-0.21875-0.9375-0.65625-1.1875-0.42969-0.25781-1.1016-0.39062-2.0156-0.39062-0.74219 0-1.4297 0.074219-2.0625 0.21875-0.63672 0.14844-1.2266 0.37109-1.7656 0.67188v-2.6406c0.73828-0.17578 1.4766-0.3125 2.2188-0.40625 0.75-0.09375 1.5-0.14062 2.25-0.14062 1.9453 0 3.3516 0.38672 4.2188 1.1562 0.86328 0.77344 1.2969 2.0234 1.2969 3.75z"/>
  </symbol>
  <symbol id="h" overflow="visible">
   <path d="m12.516-6.5781v6.5781h-3.4688v-5.0312c0-0.9375-0.023437-1.582-0.0625-1.9375-0.042969-0.35156-0.11719-0.61328-0.21875-0.78125-0.13672-0.21875-0.32031-0.39062-0.54688-0.51562-0.23047-0.125-0.49609-0.1875-0.79688-0.1875-0.71875 0-1.2891 0.27734-1.7031 0.82812-0.40625 0.55469-0.60938 1.3242-0.60938 2.3125v5.3125h-3.4531v-10.797h3.4531v1.5781c0.51953-0.63281 1.0703-1.0977 1.6562-1.3906 0.58203-0.30078 1.2266-0.45312 1.9375-0.45312 1.25 0 2.1953 0.38672 2.8438 1.1562 0.64453 0.76172 0.96875 1.8711 0.96875 3.3281z"/>
  </symbol>
  <symbol id="g" overflow="visible">
   <path d="m9-9.2188v-5.7812h3.4844v15h-3.4844v-1.5625c-0.46875 0.63672-0.99219 1.1055-1.5625 1.4062-0.57422 0.28906-1.2344 0.4375-1.9844 0.4375-1.3359 0-2.4297-0.52344-3.2812-1.5781-0.85547-1.0625-1.2812-2.4258-1.2812-4.0938 0-1.6641 0.42578-3.0234 1.2812-4.0781 0.85156-1.0625 1.9453-1.5938 3.2812-1.5938 0.73828 0 1.3945 0.15234 1.9688 0.45312 0.58203 0.29297 1.1094 0.75781 1.5781 1.3906zm-2.2656 6.9844c0.73828 0 1.3008-0.26562 1.6875-0.79688 0.38281-0.53906 0.57812-1.3281 0.57812-2.3594s-0.19531-1.8125-0.57812-2.3438c-0.38672-0.53906-0.94922-0.8125-1.6875-0.8125-0.74219 0-1.3047 0.27344-1.6875 0.8125-0.38672 0.53125-0.57812 1.3125-0.57812 2.3438s0.19141 1.8203 0.57812 2.3594c0.38281 0.53125 0.94531 0.79688 1.6875 0.79688z"/>
  </symbol>
  <symbol id="c" overflow="visible">
   <path d="m9.6875-7.8594c-0.30469-0.14453-0.60547-0.25-0.90625-0.3125-0.30469-0.070313-0.60547-0.10938-0.90625-0.10938-0.88672 0-1.5703 0.28906-2.0469 0.85938-0.48047 0.57422-0.71875 1.3906-0.71875 2.4531v4.9688h-3.4531v-10.797h3.4531v1.7656c0.44531-0.70703 0.95703-1.2227 1.5312-1.5469 0.57031-0.32031 1.2578-0.48438 2.0625-0.48438 0.11328 0 0.23828 0.007812 0.375 0.015625 0.13281 0.011719 0.33203 0.03125 0.59375 0.0625z"/>
  </symbol>
  <symbol id="y" overflow="visible">
   <path d="m0.09375-14.391h13.266v2.7969h-4.7656v11.594h-3.7188v-11.594h-4.7812z"/>
  </symbol>
  <symbol id="x" overflow="visible">
   <path d="m10.094-10.469v2.625c-0.74219-0.30078-1.4531-0.53125-2.1406-0.6875s-1.3359-0.23438-1.9375-0.23438c-0.65625 0-1.1484 0.085937-1.4688 0.25-0.32422 0.15625-0.48438 0.40625-0.48438 0.75 0 0.28125 0.11719 0.49609 0.35938 0.64062 0.25 0.14844 0.6875 0.25781 1.3125 0.32812l0.59375 0.078125c1.7695 0.23047 2.957 0.60547 3.5625 1.125 0.61328 0.51172 0.92188 1.3125 0.92188 2.4062 0 1.1562-0.42188 2.0273-1.2656 2.6094-0.84375 0.57422-2.1094 0.85938-3.7969 0.85938-0.71875 0-1.4609-0.058594-2.2188-0.17188-0.76172-0.11328-1.543-0.28125-2.3438-0.5v-2.625c0.6875 0.33594 1.3906 0.58594 2.1094 0.75 0.72656 0.16797 1.4609 0.25 2.2031 0.25 0.67578 0 1.1875-0.09375 1.5312-0.28125s0.51562-0.46094 0.51562-0.82812c0-0.3125-0.12109-0.53906-0.35938-0.6875-0.23047-0.15625-0.69922-0.27344-1.4062-0.35938l-0.60938-0.078125c-1.5312-0.1875-2.6094-0.53906-3.2344-1.0625-0.61719-0.51953-0.92188-1.3125-0.92188-2.375 0-1.1445 0.39062-1.9922 1.1719-2.5469 0.78906-0.55078 2-0.82812 3.625-0.82812 0.63281 0 1.3008 0.054688 2 0.15625 0.69531 0.09375 1.457 0.24219 2.2812 0.4375z"/>
  </symbol>
  <symbol id="w" overflow="visible">
   <path d="m7.0938-8.0156c0.76953 0 1.3203-0.14062 1.6562-0.42188 0.34375-0.28906 0.51562-0.76953 0.51562-1.4375 0-0.65625-0.17188-1.125-0.51562-1.4062-0.33594-0.28125-0.88672-0.42188-1.6562-0.42188h-1.5625v3.6875zm-1.5625 2.5625v5.4531h-3.7188v-14.391h5.6719c1.8945 0 3.2852 0.32031 4.1719 0.95312 0.88281 0.63672 1.3281 1.6406 1.3281 3.0156 0 0.94922-0.23438 1.7305-0.70312 2.3438-0.46094 0.60547-1.1484 1.0547-2.0625 1.3438 0.5 0.11719 0.95312 0.38281 1.3594 0.79688 0.40625 0.40625 0.8125 1.0234 1.2188 1.8438l2.0156 4.0938h-3.9531l-1.75-3.5781c-0.35547-0.71875-0.71484-1.207-1.0781-1.4688-0.36719-0.26953-0.85156-0.40625-1.4531-0.40625z"/>
  </symbol>
  <symbol id="v" overflow="visible">
   <path d="m1.6562-10.797h3.4531v10.797h-3.4531zm3.5781-5h2.7344l-3.5625 3.625h-1.8906z"/>
  </symbol>
  <symbol id="f" overflow="visible">
   <path d="m1.5469-4.2031v-6.5938h3.4688v1.0781c0 0.58594-0.007813 1.3203-0.015625 2.2031v1.7656c0 0.86719 0.019531 1.4922 0.0625 1.875 0.039062 0.38672 0.11719 0.66797 0.23438 0.84375 0.13281 0.21875 0.31641 0.39062 0.54688 0.51562 0.22656 0.125 0.49219 0.1875 0.79688 0.1875 0.71875 0 1.2812-0.27344 1.6875-0.82812 0.41406-0.5625 0.625-1.332 0.625-2.3125v-5.3281h3.4531v10.797h-3.4531v-1.5625c-0.52344 0.625-1.0742 1.0898-1.6562 1.3906-0.58594 0.30078-1.2266 0.45312-1.9219 0.45312-1.25 0-2.2031-0.37891-2.8594-1.1406-0.64844-0.76953-0.96875-1.8828-0.96875-3.3438z"/>
  </symbol>
  <symbol id="t" overflow="visible">
   <path d="m1.125-10.797h9.4219v2.4062l-5.6875 5.9219h5.6875v2.4688h-9.6562v-2.4062l5.6875-5.9219h-5.4531z"/>
  </symbol>
  <symbol id="s" overflow="visible">
   <path d="m8.7656-15v2.2656h-1.9062c-0.49219 0-0.83594 0.089844-1.0312 0.26562-0.1875 0.17969-0.28125 0.48438-0.28125 0.92188v0.75h2.9531v2.4688h-2.9531v8.3281h-3.4531v-8.3281h-1.7188v-2.4688h1.7188v-0.75c0-1.1758 0.32812-2.0469 0.98438-2.6094s1.6719-0.84375 3.0469-0.84375z"/>
  </symbol>
  <symbol id="r" overflow="visible">
   <path d="m11.672-9c0.4375-0.67578 0.95312-1.1875 1.5469-1.5312 0.60156-0.35156 1.2656-0.53125 1.9844-0.53125 1.2383 0 2.1797 0.38672 2.8281 1.1562 0.65625 0.76172 0.98438 1.8711 0.98438 3.3281v6.5781h-3.4688v-5.625c0.007813-0.082031 0.015625-0.17188 0.015625-0.26562v-0.39062c0-0.75781-0.11719-1.3125-0.34375-1.6562-0.21875-0.34375-0.57812-0.51562-1.0781-0.51562-0.65625 0-1.168 0.27344-1.5312 0.8125-0.35547 0.53125-0.53906 1.3125-0.54688 2.3438v5.2969h-3.4688v-5.625c0-1.1953-0.10547-1.9688-0.3125-2.3125-0.21094-0.34375-0.57422-0.51562-1.0938-0.51562-0.66797 0-1.1836 0.27344-1.5469 0.8125-0.35547 0.54297-0.53125 1.3203-0.53125 2.3281v5.3125h-3.4688v-10.797h3.4688v1.5781c0.42578-0.61328 0.91016-1.0703 1.4531-1.375 0.55078-0.3125 1.1602-0.46875 1.8281-0.46875 0.75 0 1.4062 0.18359 1.9688 0.54688 0.57031 0.35547 1.0078 0.85938 1.3125 1.5156z"/>
  </symbol>
  <symbol id="e" overflow="visible">
   <path d="m5.4219-13.875v3.0781h3.5625v2.4688h-3.5625v4.5781c0 0.5 0.097656 0.83984 0.29688 1.0156 0.20703 0.17969 0.60938 0.26562 1.2031 0.26562h1.7656v2.4688h-2.9531c-1.3672 0-2.3359-0.28125-2.9062-0.84375-0.5625-0.57031-0.84375-1.5391-0.84375-2.9062v-4.5781h-1.7188v-2.4688h1.7188v-3.0781z"/>
  </symbol>
  <symbol id="q" overflow="visible">
   <path d="m12.516-6.5781v6.5781h-3.4688v-5.0156c0-0.94531-0.023437-1.5977-0.0625-1.9531-0.042969-0.35156-0.11719-0.61328-0.21875-0.78125-0.13672-0.21875-0.32031-0.39062-0.54688-0.51562-0.23047-0.125-0.49609-0.1875-0.79688-0.1875-0.71875 0-1.2891 0.27734-1.7031 0.82812-0.40625 0.55469-0.60938 1.3242-0.60938 2.3125v5.3125h-3.4531v-15h3.4531v5.7812c0.51953-0.63281 1.0703-1.0977 1.6562-1.3906 0.58203-0.30078 1.2266-0.45312 1.9375-0.45312 1.25 0 2.1953 0.38672 2.8438 1.1562 0.64453 0.76172 0.96875 1.8711 0.96875 3.3281z"/>
  </symbol>
  <symbol id="p" overflow="visible">
   <path d="m1.8125-14.391h4.1406l5.25 9.875v-9.875h3.5156v14.391h-4.1562l-5.2344-9.875v9.875h-3.5156z"/>
  </symbol>
  <symbol id="o" overflow="visible">
   <path d="m1.8125-14.391h6.1562c1.832 0 3.2383 0.40625 4.2188 1.2188 0.98828 0.8125 1.4844 1.9688 1.4844 3.4688 0 1.5117-0.49609 2.6719-1.4844 3.4844-0.98047 0.8125-2.3867 1.2188-4.2188 1.2188h-2.4375v5h-3.7188zm3.7188 2.6875v4.0156h2.0469c0.71875 0 1.2734-0.17188 1.6719-0.51562 0.39453-0.35156 0.59375-0.85156 0.59375-1.5 0-0.64453-0.19922-1.1406-0.59375-1.4844-0.39844-0.34375-0.95312-0.51562-1.6719-0.51562z"/>
  </symbol>
  <symbol id="n" overflow="visible">
   <path d="m10.391-10.469v2.8281c-0.46875-0.32031-0.94531-0.5625-1.4219-0.71875-0.46875-0.15625-0.96094-0.23438-1.4688-0.23438-0.96094 0-1.7109 0.28125-2.25 0.84375-0.53125 0.5625-0.79688 1.3516-0.79688 2.3594 0 1.0117 0.26562 1.7969 0.79688 2.3594 0.53906 0.5625 1.2891 0.84375 2.25 0.84375 0.53906 0 1.0508-0.078125 1.5312-0.23438 0.48828-0.16406 0.94141-0.40625 1.3594-0.71875v2.8281c-0.54297 0.19922-1.0938 0.34375-1.6562 0.4375-0.55469 0.10156-1.1094 0.15625-1.6719 0.15625-1.9492 0-3.4766-0.5-4.5781-1.5-1.0938-1-1.6406-2.3906-1.6406-4.1719s0.54688-3.1719 1.6406-4.1719c1.1016-1 2.6289-1.5 4.5781-1.5 0.57031 0 1.1289 0.054688 1.6719 0.15625 0.55078 0.09375 1.1016 0.24219 1.6562 0.4375z"/>
  </symbol>
 </defs>
 <g>
  <path d="m450.52 545.78-5.0859-5.1914-3.668-6.2812h-11.633l-3.8711-3.0391 19.371-32.047-1.8398-1.3086-0.41016-2.1602-2.0469-1.7305-3.8672-1.3008-2.8516-2.3828h-4.8945l-2.4453-1.9453-1.0195-1.7305-4.4922-2.6055-2.0312-1.3008h-7.3398v4.1172h-3.0586l-4.2734-0.43359-2.4453 0.87109v-1.9492l-3.2734-2.6016v3.25l-1.4141-2.1602v-1.0859l-6.7305-1.3008v-2.1562l-2.2422 1.5039-3.0547 3.043-1.4375 3.0312-1.832 0.21484-3.0586 0.4375s-1.4297 1.293-2.2422 1.293c-0.81641 0-6.7305 0.87109-6.7305 0.87109l-1.4141-0.21484-4.3047-0.87109-2.6484-0.42969v-0.64844l-2.4375 0.64844-1.2305 1.7305-2.4531-0.64453-4.8867 1.7305-1.4219-2.8203-3.4648-0.87109s-3.2734-0.64453-3.0586-2.168c0.19922-1.5117-1.8555-3.4648-0.015625-4.543 1.8477-1.0781 2.668-2.6016 2.668-2.6016l-3.4375-6.707-3.2891-2.1758h-6.7422l-1.8281-1.5039v-7.3672l-2.2422-3.0352-1.2305-3.6836-2.8594-1.7305h-4.8828v-1.5195l-2.0391-2.5938h-3.0664l-1.6289-1.957v-0.86719h-3.2539l-4.2891-1.0781v-5.8438l-2.2305-1.5195-1.0312-3.0352v-2.8125l-4.4805-3.0391-4.0742-3.2422-3.2617-1.3008v-3.0273l-2.6523-2.1758h-2.25v1.5195l-3.6641-1.5195-4.5-3.4609-2.2305-1.3008-4.4883 2.3828-3.875-2.3828-4.0742-1.3008-2.25-1.7305h-5.1055l-4.6875-3.0352-3.457-2.8125-2.6562-3.2461-2.4453-1.3008-4.8828-1.0781-3.6719 1.0781v3.0273l-3.4727 1.957h-3.0586l-3.4648-1.7305-6.9336 1.082-6.9258-1.9453-4.082-0.87109s-7.1406-2.6016-7.3398-2.6016c-0.20313 0-1.0156-4.1211-1.0156-4.1211v-2.6016s-3.875-1.293-4.0742-1.9453c-0.20703-0.64844 0-2.6016 0-2.6016l-2.0469-1.9492-4.8906 1.3008-5.1055-1.3008-7.1328-3.2422-1.8398-2.3828-5.3047-2.6016-3.4688-3.0352-4.6797-1.7305-6.1172-5.8516-3.875-4.1133-2.2422-1.9492 2.4453-4.7656 4.0742-1.7344h8.1602l-0.22266-3.8945-2.2422-3.25-1.4375-4.1055 1.4375-5.1992 2.8516-4.7695 4.0742-5.1914 7.3359-1.7305h13.867l2.4531-4.9922 4.6875-7.7969 4.2773-8.0039 3.4648-2.3867s3.2734-3.2422 3.6836-3.8906c0.41016-0.65234 2.6367-4.9922 2.6367-4.9922s2.043-4.3359 2.4531-4.9688c0.41016-0.65625 0.20703-2.3867-0.80859-1.7344-1.0234 0.64844-3.6758 1.5117-3.6758 1.5117l-4.0742-1.6602 1.4219-1.375-1.4219-2.0859-2.8516-2.8906s-1.6445-3.2461-1.6445-3.8984c0-0.64844 2.0469-3.4688 2.0469-3.4688l3.4648-9.5195v-4.9922l-1.8398-4.1133-0.61328-6.7148v-7.3594l-1.8203-3.4688h-4.2969l1.2383-1.9492 2.4375-1.5195h4.0898l1.8242-2.6016s1.2383-1.5039 1.2383-2.8125c0-1.293-0.625-2.8125-0.625-2.8125l-1.6289-3.8906-0.80859-3.043-3.8828-3.457-0.41016-3.0352h1.6367l1.4219-2.1562 1.2383-4.9922-0.20703-2.6016-0.82422-1.7344-0.80859-1.9492h-4.8867l-1.0312-2.6016s-3.0586-3.8906-3.6641-3.6797c-0.60547 0.22266 0-2.8125 0-2.8125l-0.60547-1.7344-1.8477-2.1562-3.668-3.2539-1.4219-1.293 2.0273-4.7773s0.61328-1.5039 1.6367-2.1562c1.0234-0.65234 2.6602 0 2.6602 0s-0.20703-3.6797-0.20703-4.3359c0-0.64844 0.81641-1.7344 0.81641-1.7344l3.6641 2.1641 2.4531 2.168 1.8242-1.7344 2.6562-4.7617 3.2539-3.4688 2.4531-2.8125 1.2227-4.3359-5.2891-7.1484v-3.2461l-2.6484-3.4688 1.6211-4.1133 2.8555 2.3867 3.6719 3.6797 5.5117 4.3281s2.0469 3.4648 2.6484 3.6914c0.60547 0.21484 2.6523 3.6797 2.6523 3.6797l-3.2539 2.8125 0.80078 2.1562h3.2734l3.2539-0.64844-0.19922-8.6602-1.2305-6.2812-3.0586-4.5469-1.832-0.86719 1.2305-1.7344 7.1328-1.7344 7.1328-4.1133 4.0742-4.3281 6.3281-8.0117 4.8984-5.6328 7.5312-1.7344h5.3164l0.60547-1.9492 0.60547-5.8477-2.4375-1.5195 1.6289-3.2461s0.80859-1.7266 1.8359-3.0352c1.0156-1.293 2.4375-2.8125 1.6289-4.1055-0.80859-1.3086-1.6289-1.3086-1.4219-2.3867s1.0156-4.1133 1.4219-4.9766c0.40234-0.86719-0.20703-4.7695-0.20703-4.7695s0.41016-3.4688 0.81641-4.1172c0.40234-0.64844 4.6953-3.8984 4.6953-3.8984l3.2539-3.457h4.2812l2.2422-3.8984 5.5117-3.6797 2.2305-1.9492 5.1055 1.5117 6.8359 1.3008h4.3828l4.2773-1.0781-1.2188-3.8984 1.0234-3.4648 2.8438-1.3008 4.8906-1.0781h6.9336l6.7383 1.9492 5.2891-0.42969 6.5195-3.2461 5.5117-3.4688 3.875-2.8125 5.5039-4.3359 8.7812-1.7344 7.332-3.2461 2.6523-3.6836 1.0234-5.8477 0.003906-2.8281h4.6953s1.0156 1.7344 1.6211 1.7344c0.61328 0 3.875-0.22266 3.875-0.22266l-2.0312-2.8125 2.6523-2.1641 2.2266 1.3008 1.0234-3.2461h3.4688l5.918 1.0781 4.0742 1.7305 4.2734 3.4688 2.6602 5.1914-4.4805 3.6914-4.5 3.457-5.6992 2.168-7.1523 2.8125-8.1484 3.6797-6.1172 14.082-7.3516 2.1562-6.1172 9.5391-3.2617 6.9258-4.0703 7.3672-3.0586 6.9258-0.41016 5.4141-1.3828 7.7969-4.3359 2.8125-1.4141 3.4688-3.0586 4.1211-3.0586 5.418 3.0586 1.293 4.2773-1.9492 3.6641-2.3789 0.87109 2.8125 2.1914 3.4648 2.6602-0.86719 1.8359 0.22266 1.6211 8.0039 2.0469 7.3672 4.2852 4.1055 3.8711 3.2539 1.0156 6.9336 0.81641 5.8398-2.8633 1.5195-0.79688 4.3359 0.40234 4.1055 0.39844 7.5859 3.6758 2.1562 4.2969-0.86719 1.4219 4.1211 3.0547 4.9688 3.668 2.1758h6.3203l4.8984 0.21484 7.3398-0.21484 4.8906 0.64453 3.8711-0.42969 5.7109 1.5117 2.4531-0.86719 4.4805-2.168 8.9727 0.44141 3.0586 2.5938 3.0664 0.22266 2.4258 0.21484 4.0898-0.65625 1.2227-0.42578 23.457 28.59 1.8281-0.87109 2.6523 0.87109 1.2227 0.21484 4.0898-1.9492 1.8203-1.957 6.9375 1.0859 6.1172 0.86719 4.5-0.22266 3.6641-0.64844 4.6836-0.44141 4.0859-1.293s2.0391-0.22266 2.6602-0.22266c0.61328 0 2.8398 0.42969 2.8398 0.42969l4.4961-1.0781 4.2773-2.168 6.1172 1.3008 2.8555 1.7344 1.4219 3.6836 1.6367 3.6797-5.3008 2.8125-1.8281 4.7695 1.2188 4.1133-1.4102 4.5469-6.1289 3.6797-0.61328 6.5039 1.2305 4.9766-0.61328 4.3359-0.40234 4.5469-2.25 5.4141 3.0586 3.6836 2.25 3.8906-0.83203 4.9922 1.6445 2.6016 1.8203 6.0625 1.0352 4.5469 2.2148 1.1094 2.6602-0.86719 1.0312 2.6016 2.2227 5.625 1.8477 1.7305 2.2383 2.6016-2.8516 1.9492-4.082 1.9453-6.332 7.1523-7.3242 5.1992 1.2148 1.293 5.5156-0.87109 3.8672 2.1758 2.8555 3.457 1.8477 1.3008 2.4453 1.9492 2.8516 3.0352 2.4375 3.0352v4.7617l1.0312 1.957 2.6523 1.5117v4.9727l3.2734 6.0625 1.2109 4.5547 1.8477 6.2773 1.4141 3.4609-0.003906 4.1289-7.1328 1.0781 0.61328-7.582-4.4844-11.918-2.6602-1.0781-4.2891-12.117-2.0312 0.42188-4.2852 4.5469-9.1758 3.8984v4.1133l-3.2734 0.42969-4.8789-5.6328-3.2617-0.86328-2.0469 0.86328v3.9062l2.6523 2.1602-1.0156 0.86719-17.535 0.43359-8.7773 0.22266-11.816-0.65625-6.1172-2.1562-5.9219 1.7266-4.2656 0.87109-0.22266 8.4492-0.40234 11.266h2.0469l1.4102-0.22656h2.8555l3.0586 0.65625 6.3281-0.21484 4.0898 1.5117 2.0312 5.1914 0.60547 4.9922-2.0312 3.8906-4.6953-1.7344-4.4805-3.0273-4.9102 3.6875-5.6914 1.7305-6.3359 0.64844-1.2227 1.7305 0.41016 20.145 0.80859 1.5117 3.2812 4.1172 2.6367 1.3008 4.4961 3.0352 3.4688 1.293 0.60547 3.4648-1.2227 3.6836 2.0391 3.0469 2.4453 3.8906 2.4414 3.2422v5.8477l0.41016 4.1211-2.6484 9.9609-5.9219 33.141-4.6797 24.465z"/>
  <use x="70" y="619.269531" xlink:href="#aa"/>
  <use x="84.140625" y="619.269531" xlink:href="#u"/>
  <use x="103.898438" y="619.269531" xlink:href="#m"/>
  <use x="120.296875" y="619.269531" xlink:href="#l"/>
  <use x="127.066406" y="619.269531" xlink:href="#b"/>
  <use x="140.46875" y="619.269531" xlink:href="#d"/>
  <use x="154.609375" y="619.269531" xlink:href="#a"/>
  <use x="175.058594" y="619.269531" xlink:href="#k"/>
  <use x="190.347656" y="619.269531" xlink:href="#j"/>
  <use x="197.121094" y="619.269531" xlink:href="#b"/>
  <use x="210.519531" y="619.269531" xlink:href="#i"/>
  <use x="217.292969" y="619.269531" xlink:href="#z"/>
  <use x="230.621094" y="619.269531" xlink:href="#h"/>
  <use x="244.6875" y="619.269531" xlink:href="#g"/>
  <use x="258.828125" y="619.269531" xlink:href="#c"/>
  <use x="268.570312" y="619.269531" xlink:href="#a"/>
  <use x="289.023438" y="619.269531" xlink:href="#y"/>
  <use x="302.5" y="619.269531" xlink:href="#a"/>
  <use x="316.070312" y="619.269531" xlink:href="#c"/>
  <use x="325.8125" y="619.269531" xlink:href="#c"/>
  <use x="335.554688" y="619.269531" xlink:href="#b"/>
  <use x="348.957031" y="619.269531" xlink:href="#x"/>
  <use x="367.59375" y="619.269531" xlink:href="#w"/>
  <use x="382.804687" y="619.269531" xlink:href="#a"/>
  <use x="396.378906" y="619.269531" xlink:href="#g"/>
  <use x="410.519531" y="619.269531" xlink:href="#c"/>
  <use x="420.261719" y="619.269531" xlink:href="#v"/>
  <use x="427.035156" y="619.269531" xlink:href="#d"/>
  <use x="441.175781" y="619.269531" xlink:href="#f"/>
  <use x="455.238281" y="619.269531" xlink:href="#b"/>
  <use x="468.636719" y="619.269531" xlink:href="#t"/>
  <use x="70" y="639.023437" xlink:href="#s"/>
  <use x="78.59375" y="639.023437" xlink:href="#c"/>
  <use x="88.335938" y="639.023437" xlink:href="#a"/>
  <use x="101.910156" y="639.023437" xlink:href="#r"/>
  <use x="129.375" y="639.023437" xlink:href="#e"/>
  <use x="138.816406" y="639.023437" xlink:href="#q"/>
  <use x="152.882812" y="639.023437" xlink:href="#b"/>
  <use x="173.160156" y="639.023437" xlink:href="#p"/>
  <use x="189.691406" y="639.023437" xlink:href="#a"/>
  <use x="203.265625" y="639.023437" xlink:href="#f"/>
  <use x="217.328125" y="639.023437" xlink:href="#h"/>
  <use x="238.273438" y="639.023437" xlink:href="#o"/>
  <use x="252.75" y="639.023437" xlink:href="#c"/>
  <use x="262.496094" y="639.023437" xlink:href="#a"/>
  <use x="276.066406" y="639.023437" xlink:href="#i"/>
  <use x="282.839844" y="639.023437" xlink:href="#b"/>
  <use x="296.238281" y="639.023437" xlink:href="#n"/>
  <use x="307.949219" y="639.023437" xlink:href="#e"/>
 </g>
</svg>
