<?xml version="1.0" encoding="UTF-8"?>
<svg width="700pt" height="700pt" version="1.1" viewBox="0 0 700 700" xmlns="http://www.w3.org/2000/svg" xmlns:xlink="http://www.w3.org/1999/xlink">
 <defs>
  <symbol id="n" overflow="visible">
   <path d="m28.859-1.7188c-1.4922 0.77344-3.043 1.3516-4.6562 1.7344-1.6055 0.39453-3.2891 0.59375-5.0469 0.59375-5.2305 0-9.375-1.457-12.438-4.375-3.0547-2.9258-4.5781-6.8945-4.5781-11.906 0-5.0195 1.5234-8.9883 4.5781-11.906 3.0625-2.9258 7.207-4.3906 12.438-4.3906 1.7578 0 3.4414 0.19922 5.0469 0.59375 1.6133 0.38672 3.1641 0.96484 4.6562 1.7344v6.5c-1.5-1.0195-2.9805-1.7695-4.4375-2.25-1.4609-0.47656-2.9961-0.71875-4.6094-0.71875-2.8867 0-5.1562 0.92969-6.8125 2.7812-1.6562 1.8555-2.4844 4.4062-2.4844 7.6562 0 3.2422 0.82812 5.7891 2.4844 7.6406 1.6562 1.8438 3.9258 2.7656 6.8125 2.7656 1.6133 0 3.1484-0.23438 4.6094-0.70312 1.457-0.47656 2.9375-1.2266 4.4375-2.25z"/>
  </symbol>
  <symbol id="i" overflow="visible">
   <path d="m21.125-17.141c-0.66797-0.3125-1.3281-0.53906-1.9844-0.6875-0.64844-0.14453-1.2969-0.21875-1.9531-0.21875-1.9375 0-3.4336 0.62109-4.4844 1.8594-1.043 1.2422-1.5625 3.0156-1.5625 5.3281v10.859h-7.5156v-23.562h7.5156v3.875c0.96875-1.5391 2.0781-2.6641 3.3281-3.375 1.2578-0.70703 2.7695-1.0625 4.5312-1.0625 0.25 0 0.51953 0.011719 0.8125 0.03125 0.28906 0.023438 0.71875 0.070312 1.2812 0.14062z"/>
  </symbol>
  <symbol id="a" overflow="visible">
   <path d="m27.141-11.844v2.1406h-17.609c0.17578 1.7734 0.8125 3.1016 1.9062 3.9844 1.0938 0.88672 2.625 1.3281 4.5938 1.3281 1.582 0 3.2031-0.23438 4.8594-0.70312 1.6641-0.47656 3.375-1.1914 5.125-2.1406v5.7969c-1.7812 0.67969-3.5625 1.1875-5.3438 1.5312s-3.5625 0.51562-5.3438 0.51562c-4.2617 0-7.5742-1.082-9.9375-3.25-2.3672-2.1641-3.5469-5.207-3.5469-9.125 0-3.832 1.1602-6.8477 3.4844-9.0469 2.3203-2.207 5.5156-3.3125 9.5781-3.3125 3.707 0 6.6719 1.1172 8.8906 3.3438 2.2266 2.2305 3.3438 5.2109 3.3438 8.9375zm-7.75-2.5c0-1.4258-0.41797-2.5781-1.25-3.4531-0.83594-0.88281-1.9219-1.3281-3.2656-1.3281-1.4609 0-2.6484 0.41406-3.5625 1.2344-0.90625 0.82422-1.4766 2.0078-1.7031 3.5469z"/>
  </symbol>
  <symbol id="e" overflow="visible">
   <path d="m14.172-10.594c-1.5625 0-2.7461 0.26562-3.5469 0.79688-0.79297 0.53125-1.1875 1.3125-1.1875 2.3438 0 0.96094 0.31641 1.7109 0.95312 2.25 0.64453 0.54297 1.5352 0.8125 2.6719 0.8125 1.4141 0 2.6094-0.50781 3.5781-1.5312 0.96875-1.0195 1.4531-2.2891 1.4531-3.8125v-0.85938zm11.516-2.8438v13.438h-7.5938v-3.4844c-1.0117 1.4297-2.1523 2.4688-3.4219 3.125-1.2617 0.64453-2.793 0.96875-4.5938 0.96875-2.4375 0-4.4219-0.70703-5.9531-2.125-1.5234-1.4258-2.2812-3.2734-2.2812-5.5469 0-2.7695 0.94531-4.7969 2.8438-6.0781 1.9062-1.2891 4.8945-1.9375 8.9688-1.9375h4.4375v-0.59375c0-1.1875-0.47656-2.0547-1.4219-2.6094-0.9375-0.5625-2.4023-0.84375-4.3906-0.84375-1.6172 0-3.1172 0.16406-4.5 0.48438-1.3867 0.32422-2.6797 0.80859-3.875 1.4531v-5.7344c1.6133-0.39453 3.2344-0.69141 4.8594-0.89062 1.6328-0.20703 3.2656-0.3125 4.8906-0.3125 4.25 0 7.3164 0.83984 9.2031 2.5156 1.8828 1.6797 2.8281 4.4023 2.8281 8.1719z"/>
  </symbol>
  <symbol id="h" overflow="visible">
   <path d="m11.844-30.25v6.6875h7.7656v5.3906h-7.7656v9.9844c0 1.0938 0.21094 1.8359 0.64062 2.2188 0.4375 0.38672 1.3008 0.57812 2.5938 0.57812h3.875v5.3906h-6.4531c-2.9805 0-5.0898-0.61719-6.3281-1.8594-1.2422-1.2383-1.8594-3.3477-1.8594-6.3281v-9.9844h-3.75v-5.3906h3.75v-6.6875z"/>
  </symbol>
  <symbol id="d" overflow="visible">
   <path d="m19.641-20.109v-12.625h7.5781v32.734h-7.5781v-3.4062c-1.0312 1.3867-2.1719 2.4023-3.4219 3.0469s-2.6953 0.96875-4.3281 0.96875c-2.9062 0-5.293-1.1484-7.1562-3.4531-1.8672-2.3125-2.7969-5.2852-2.7969-8.9219 0-3.625 0.92969-6.5859 2.7969-8.8906 1.8633-2.3125 4.25-3.4688 7.1562-3.4688 1.625 0 3.0625 0.32812 4.3125 0.98438 1.2578 0.64844 2.4062 1.6562 3.4375 3.0312zm-4.9531 15.25c1.6016 0 2.8281-0.58594 3.6719-1.7656 0.85156-1.1758 1.2812-2.8906 1.2812-5.1406 0-2.2383-0.42969-3.9453-1.2812-5.125-0.84375-1.1758-2.0703-1.7656-3.6719-1.7656-1.6055 0-2.8359 0.58984-3.6875 1.7656-0.84375 1.1797-1.2656 2.8867-1.2656 5.125 0 2.25 0.42188 3.9648 1.2656 5.1406 0.85156 1.1797 2.082 1.7656 3.6875 1.7656z"/>
  </symbol>
  <symbol id="c" overflow="visible">
   <path d="m16.156-4.8594c1.6133 0 2.8438-0.58594 3.6875-1.7656 0.85156-1.1758 1.2812-2.8906 1.2812-5.1406 0-2.2383-0.42969-3.9453-1.2812-5.125-0.84375-1.1758-2.0742-1.7656-3.6875-1.7656-1.6172 0-2.8555 0.59375-3.7188 1.7812-0.86719 1.1797-1.2969 2.8828-1.2969 5.1094 0 2.2422 0.42969 3.9531 1.2969 5.1406 0.86328 1.1797 2.1016 1.7656 3.7188 1.7656zm-5.0156-15.25c1.0391-1.375 2.1914-2.3828 3.4531-3.0312 1.2578-0.65625 2.7109-0.98438 4.3594-0.98438 2.9062 0 5.2891 1.1562 7.1562 3.4688 1.8633 2.3047 2.7969 5.2656 2.7969 8.8906 0 3.6367-0.93359 6.6094-2.7969 8.9219-1.8672 2.3047-4.25 3.4531-7.1562 3.4531-1.6484 0-3.1016-0.32422-4.3594-0.96875-1.2617-0.65625-2.4141-1.6719-3.4531-3.0469v3.4062h-7.5156v-32.734h7.5156z"/>
  </symbol>
  <symbol id="g" overflow="visible">
   <path d="m0.53125-23.562h7.5312l6.3281 15.984 5.375-15.984h7.5312l-9.9062 25.797c-0.99219 2.6133-2.1523 4.4414-3.4844 5.4844-1.3242 1.0508-3.0703 1.5781-5.2344 1.5781h-4.3594v-4.9375h2.3594c1.2695 0 2.1953-0.20312 2.7812-0.60938 0.58203-0.40625 1.0352-1.1367 1.3594-2.1875l0.20312-0.65625z"/>
  </symbol>
  <symbol id="b" overflow="visible">
   <path d="m3.9531-31.406h10.312l7.1406 16.812 7.2031-16.812h10.281v31.406h-7.6562v-22.969l-7.2344 16.938h-5.125l-7.25-16.938v22.969h-7.6719z"/>
  </symbol>
  <symbol id="m" overflow="visible">
   <path d="m14.828-18.734c-1.668 0-2.9375 0.60156-3.8125 1.7969-0.875 1.1992-1.3125 2.9219-1.3125 5.1719 0 2.2617 0.4375 3.9922 1.3125 5.1875 0.875 1.1992 2.1445 1.7969 3.8125 1.7969 1.6445 0 2.8984-0.59766 3.7656-1.7969 0.86328-1.1953 1.2969-2.9258 1.2969-5.1875 0-2.25-0.43359-3.9727-1.2969-5.1719-0.86719-1.1953-2.1211-1.7969-3.7656-1.7969zm0-5.3906c4.0508 0 7.2188 1.0938 9.5 3.2812s3.4219 5.2148 3.4219 9.0781c0 3.875-1.1406 6.9062-3.4219 9.0938s-5.4492 3.2812-9.5 3.2812c-4.0625 0-7.2461-1.0938-9.5469-3.2812-2.293-2.1875-3.4375-5.2188-3.4375-9.0938 0-3.8633 1.1445-6.8906 3.4375-9.0781 2.3008-2.1875 5.4844-3.2812 9.5469-3.2812z"/>
  </symbol>
  <symbol id="f" overflow="visible">
   <path d="m27.297-14.344v14.344h-7.5625v-10.938c0-2.0625-0.046875-3.4766-0.14062-4.25-0.09375-0.76953-0.25-1.3359-0.46875-1.7031-0.30469-0.48828-0.71094-0.86719-1.2188-1.1406-0.5-0.28125-1.0703-0.42188-1.7031-0.42188-1.5742 0-2.8125 0.60938-3.7188 1.8281-0.89844 1.2109-1.3438 2.8867-1.3438 5.0312v11.594h-7.5156v-32.734h7.5156v12.625c1.1445-1.375 2.3516-2.3828 3.625-3.0312 1.2812-0.65625 2.6914-0.98438 4.2344-0.98438 2.7188 0 4.7812 0.83594 6.1875 2.5 1.4062 1.668 2.1094 4.0938 2.1094 7.2812z"/>
  </symbol>
  <symbol id="l" overflow="visible">
   <path d="m25.453-19.641c0.94531-1.457 2.0781-2.5664 3.3906-3.3281 1.3125-0.76953 2.7539-1.1562 4.3281-1.1562 2.707 0 4.7695 0.83594 6.1875 2.5 1.4141 1.668 2.125 4.0938 2.125 7.2812v14.344h-7.5781v-12.281c0.007812-0.1875 0.019531-0.375 0.03125-0.5625 0.007812-0.19531 0.015625-0.47656 0.015625-0.84375 0-1.6758-0.24609-2.8906-0.73438-3.6406-0.49219-0.75-1.2812-1.125-2.375-1.125-1.4375 0-2.5469 0.59375-3.3281 1.7812-0.77344 1.1797-1.1719 2.8828-1.2031 5.1094v11.562h-7.5781v-12.281c0-2.6133-0.22656-4.2969-0.67188-5.0469-0.44922-0.75-1.2461-1.125-2.3906-1.125-1.4492 0-2.5703 0.59375-3.3594 1.7812-0.78125 1.1875-1.1719 2.8828-1.1719 5.0781v11.594h-7.5625v-23.562h7.5625v3.4531c0.92578-1.332 1.9883-2.332 3.1875-3 1.207-0.67578 2.5312-1.0156 3.9688-1.0156 1.625 0 3.0625 0.39844 4.3125 1.1875 1.25 0.78125 2.1953 1.8828 2.8438 3.2969z"/>
  </symbol>
  <symbol id="k" overflow="visible">
   <path d="m19.125-32.734v4.9531h-4.1719c-1.0625 0-1.8086 0.19531-2.2344 0.57812-0.41797 0.38672-0.625 1.0547-0.625 2v1.6406h6.4375v5.3906h-6.4375v18.172h-7.5312v-18.172h-3.7344v-5.3906h3.7344v-1.6406c0-2.5625 0.71094-4.457 2.1406-5.6875 1.4375-1.2266 3.6562-1.8438 6.6562-1.8438z"/>
  </symbol>
  <symbol id="j" overflow="visible">
   <path d="m3.625-23.562h7.5156v23.141c0 3.1562-0.75781 5.5625-2.2656 7.2188-1.5117 1.6641-3.7031 2.5-6.5781 2.5h-3.7344v-4.9375h1.3125c1.4258 0 2.4062-0.32422 2.9375-0.96875 0.53906-0.64844 0.8125-1.918 0.8125-3.8125zm0-9.1719h7.5156v6.1406h-7.5156z"/>
  </symbol>
 </defs>
 <g>
  <path d="m520.61 353.71c-0.19141-0.58594-0.37109-1.1367-0.5-1.7148-0.47266-1.8594-1.1367-3.7227-1.8164-5.5898-0.75-2.0938-1.6094-4.4727-1.6094-5.9258-0.027344-2.8945-1.0781-5.1797-2.0078-6.918 0.058594-0.19141 0.12109-0.41406 0.17969-0.64453 0.37109-1.3164 0.09375-3.293-0.39453-4.5664-1.1016-2.9453-5.9688-9.8047-12.027-14.465 3.5742-2.6172 7.7188-5.918 9.332-11.199 2.2305-7.3672-2.8008-13.578-6.582-18.246-1.0078-1.2578-2.6953-3.3516-2.9297-3.8086-0.4375-2.4727-1.0352-4.9531-1.6641-7.5391-1.0586-4.3164-2.0508-8.3984-1.7656-11.629 0.15625-1.5586 0.14453-3.5156 0.12109-5.7539l-0.007812-0.9375c-0.042969-2.293-0.17969-9.0273 0.65625-11.305 5.6172-4.2031 5.6758-9.3477 5.7031-11.934 0.007813-0.53516-0.007813-1.0781-0.035156-1.2578 0.17969-0.32031 0.89453-1.1367 1.4219-1.7422 1.1992-1.3516 2.6953-3.0312 3.7812-5.2305 2.0664-4.1172 1.8008-8.832-0.73047-12.941-4.2734-6.9258-14.785-9.9609-21.453-5.9102-1.7148 1.0508-3.4531 1.1133-7.3594 1.1562l-2.1289 0.027344c-1.9727 0.035156-3.7891 0.57031-5.668 1.1133-0.54297 0.16406-1.1367 0.36328-1.5859 0.48438-3.8086-1.1875-7.9258-1.3086-13.32-0.25781-1.0078 0.19922-2.1719 0.007812-3.0742 0.39453-0.86328-0.24219-1.6094-0.40625-2.3867-0.55078-2.2305-3.7734-4.0664-6.6836-5.9453-9.4961-0.53516-0.76562-1.0352-1.6641-1.8008-2.9805-1.7656-3.0859-3.7656-6.5898-6.8594-9.3203-2.1445-1.8711-4.875-2.8516-7.918-2.8516-0.94922 0-1.9297 0.09375-3.1602 0.33594-0.37109-0.20703-0.86328-0.51562-1.2656-0.78516-2.1523-1.3945-5.418-3.4961-10.141-3.5938-3.7734 0-6.875 1.2656-9.1328 2.1953-1.0352 0.42188-2.2148 0.90625-3.0508 0.97266-0.62109 0-1.7227-0.33594-3.1797-0.76562-2.5938-0.76562-6.5469-1.6875-9.7188-1.3281-1.8789 0.17969-3.4453 0.6875-4.7461 1.0938-0.007813 0-0.015625 0-0.027344 0.007813-0.91406-2.8086-2.5586-7.8242-8.1836-10.648 0.078125-1.2656 0.51562-3.4648 1.5078-6.125 4.5586-12.172 1.5938-19.473-4.9453-27.793-0.40625-0.74219-0.85156-3.3594-1.0664-4.625-0.65625-3.832-1.8789-10.934-7.1836-14.043-0.13672-0.4375-0.27734-0.87891-0.4375-1.3086l-0.89453-2.3945c-0.14453-0.37891-0.32031-0.74219-0.52734-1.0781 1.4492-2.9648 2.75-6.2305 3.6016-9.5391 0.70703-2.8242 1.2148-5.625 1.6797-8.3906 0.78516-4.4883 1.4648-8.3672 3.1797-11.984 1.6523-3.5234 4.668-8.7109 7.6172-12.25 0.14453-0.042968 0.29297-0.09375 0.46484-0.15625 1.6523-0.49219 4.4297-1.3164 6.832-3.5938 2.8516-2.6641 4.3672-5.8672 5.582-8.4336 0.58594-1.2422 1.207-2.5156 1.4492-2.8867 1.0078-0.84375 5.1445-2.6094 7.418-3.5938 8.7969-3.7812 18.746-8.0742 20.055-17.18 0.52734-3.5586-0.22266-8.9258-6.668-14.266-6.5039-5.4531-13.992-6.3398-22.484-2.5-1.6797 0.76562-3.1016 1.793-4.2734 3.043-1.7656 0.22266-3.5156 0.67188-4.8086 1.0586l-2.0508 0.59375c-1.8516 0.54297-3.3672 1.8867-4.125 3.6602-0.75781 1.7734-0.6875 3.8008 0.19922 5.5156l0.54297 1.0586c-1.7734 1.3438-5.6523 3.0586-7.2695 3.7734-2.0781 0.91406-4.0234 1.8008-5.4453 2.6523-3.1875 1.9023-5.7383 3.9375-8.3477 6.0117-4.3672 3.5078-6.4453 5.0586-9.8828 5.0586-0.78516 0-1.6211-0.085937-2.4141-0.20703-3.4102-0.58594-6.2461-1.0352-8.8906-1.0352-8.2031 0-12.379 4.5312-14.773 9.1055-2.457-1.207-5.4883-2.5938-9.4961-2.6875-6.0664 0-14.887 8.832-18.395 14.836-3.1289 1.6367-9.6484 5.2969-9.3906 13.199 0.007813 0.22266 0.027344 0.45703 0.042969 0.70703-3.6367 2.9727-4.0078 6.3477-3.5312 8.9258 0.11328 0.59375 0.29297 1.1719 0.51562 1.7227-0.51562 1.6445-0.92188 3.2656-1.3008 4.7812-0.32031 1.3086-0.63672 2.5938-1.0234 3.7812-0.59375 1.8086-0.61328 3.4727-0.36328 4.9297-1.2227 0.20703-2.4805 0.50781-3.6719 1.043-5.6172 2.4141-8.4336 7.5312-10.492 11.27-0.57812 1.0508-1.1133 2.0586-1.1797 2.2656-0.84375 0.75781-2.8516 2.0234-4.7461 3.2812-4.2383 2.793-8.5469 5.6328-11.32 8.8398-0.42969-0.60156-0.87109-1.1875-1.3008-1.75l-1.5234-1.9727c-1.2852-1.6523-3.3008-2.6289-5.375-2.5078-2.0938 0.085938-4.0156 1.1719-5.1602 2.9297l-1.3594 2.0938c-5.918 9.125-2.4727 15.18-0.17188 19.23 0.67188 1.1641 1.4492 2.4805 2.0352 4.1875 0.17188 0.5-0.19141 1.707-1.3594 3.3438-1.0781-0.90625-2.4219-1.4492-3.8438-1.5234-1.8516-0.11328-3.5391 0.55078-4.8164 1.8008l-1.3945 1.3359c-3.5391 3.4531-3.7305 7.7188-3.8242 9.7852 0 0.12109-0.007813 0.23438-0.007813 0.34375-6.9766 9.418-2.8867 15.293 0.17969 17.965 0.82812 0.71484 1.6523 2.6641 2.4648 4.5586 1.1797 2.75 2.6523 6.168 5.1875 8.9766 0.34375 0.5 0.80078 1.5664 1.1211 2.4727-1.3086 1.1797-2.2812 2.6523-2.8516 4.3516-1.8008 5.332 1.0664 10.168 3.3242 13.758-2.1289 1.5-5.2305 4.3086-4.9102 9.1562 0.20703 2.9375 0.92188 5.6016 1.5664 7.9961 0.21484 0.80078 0.41406 1.5781 0.57812 2.3438l-0.070312 0.36328c-0.23438 1.293 0.10156 2.6641 0.71484 3.8594l0.13672 1.3359c0.47266 4.4023 1.0156 9.3906 0.27734 12.391 0 0.007812-0.23438 0.85156-0.23438 0.87109-0.25781 0.99219-0.55078 2.1445-0.77344 3.3438-0.042969 0.11328-0.085938 0.22266-0.12891 0.33594-1.3164 1.2578-2.3867 2.75-3.1445 4.4023l-0.90625 1.9297c-0.54297 1.1445-0.72266 2.4141-0.55078 3.6445-0.10156 1.4375 0.26562 2.9023 1.1562 4.168 0.45703 0.65625 0.94922 1.293 1.457 1.9297 0.61328 2.6953 2.0586 4.6172 3.8438 5.832 0.30078 0.61328 0.65625 1.1875 1.0508 1.707-1.6367 1.8164-2.8945 3.7578-3.8008 5.8398-0.35156 0.82031-0.6875 1.7422-1.0938 2.9219-0.29297 0.19922-0.57031 0.42188-0.83594 0.66406l-1.8438 1.7422c-0.66406 0.62891-1.293 1.2734-1.8711 1.9453l-0.74219 0.015624c-2.6953 0.078126-5.0742 1.8164-5.9453 4.375-0.62891 1.8438-0.37891 3.8242 0.58594 5.4375-1.6523 0.19922-3.1797 1.0508-4.2383 2.3594l-0.48438-0.058594c-2-0.25781-3.9961 0.44922-5.4023 1.8867-0.96484 0.97266-1.5781 2.2227-1.7852 3.5391-3.9297 1.3789-8.3984 4.0742-11.191 9.6914-1.8945 3.7734-1.7227 7.3242-1.0156 10.219-5.6445 1.7422-9.8633 6.4453-10.871 12.605l-0.25781 1.5586c-0.53516 3.2656 1.4727 6.4102 4.668 7.2891l1.6797 0.45703c4.3945 5.418 9.4336 9.7344 14.242 13.707 5.2227 4.3242 12.562 9.4258 19.066 10.27 0.80078 1.1367 2.043 2.6016 3.9961 3.8438 1.0078 5.918 4.5664 9.4688 10.676 10.57 0.64453 0.11328 1.75 0.41406 3.3242 0.82813 4.9531 1.2656 11.742 3.0078 17.016 3.0078 4.2383 0 7.2539-1.2227 9.2773-3.0234 0.87109 0.79297 1.9297 1.8008 3.2305 3.0938 1.2422 1.2422 2.25 2.1875 2.7148 2.543 3.1797 2.5 7.4336 4.2734 11.199 5.8594 1.0156 0.42188 1.9883 0.82812 2.9375 1.2656 3.7812 1.6953 7.2617 1.4062 9.5117 0.19141 4.8242 2.1445 12.285 8.6484 13.008 10.898 0.75781 9.3477 4.8086 15.922 11.07 18.031 0.71484 0.23438 1.3594 0.42188 1.8789 0.55859 0.42188 0.12891 0.77344 0.20703 1.1367 0.62109 2.5312 3.6016 6.168 4.875 8.3477 5.6445 0.070312 0.027344 0.13672 0.050781 0.19922 0.070312 0.75781 2.3594 1.293 5.4453 1.7148 7.8125 1.25 7.0039 7.0742 9.1133 10.105 9.9258-0.41406 3.4727-1.1445 9.8633 4.3242 14.121 4.2148 3.2812 7.9883 5.3164 13.715 5.3164 1.1133 0 2.3164-0.085938 4.0312-0.26563 0.94922 0 2.0078 0.13672 3.1719 0.26563 4.1094 0.42969 7.8242 0.41406 10.406-0.61328 2.6289-1.0352 5.0312-2.8008 7.7617-4.9023 0.75-0.57031 1.8945-1.4492 2.8594-2.1094 2.9531 1.957 7.0312 4.3164 11.879 4.3164 2.293 0 4.4727-0.51562 6.4531-1.5 1.1367-0.55859 2.0938-1.1289 2.9219-1.6367 0.26562 0.26562 0.57031 0.58594 0.89453 0.92969 2.6719 2.7383 6.8242 7.0898 12.855 6.7031 0.078125 0.09375 0.15625 0.17969 0.21484 0.26562-0.90625 1.6094-2.543 3.8516-3.4648 5.1367-1.0078 1.3945-1.9219 2.6719-2.4883 3.6523l-0.58594 0.96484c-7.1758 11.605-9.2695 17.488-7.9883 22.527 0.67969 2.5859 2.293 4.7305 4.668 6.1328 2.7305 1.5352 5.9453 2.0078 10.035 1.6211 2.3164 2.6016 4.3672 5.1367 5.332 7.5469l1.8438 4.5312c0.99219 2.4375 3.3672 4.0312 5.9883 4.0312 0.085937 0 0.16406 0 0.24219-0.007813 2.7148-0.10156 5.082-1.8945 5.9102-4.4883l1.5-4.6602c4.9297-15.449 6.3047-32.387 7.5469-47.617 0.61328-7.2266 1.2422-14.688 2.2148-21.738 0.30078-2.2812 0.91406-4.7969 1.5664-7.4531 1.9883-8.2695 4.4805-18.559 0.24219-27.758-0.71484-1.5156-1.4648-2.793-2.1719-3.9453-1.1719-1.9297-1.1719-2.0234-1.1445-2.7812 0.32031-8.6758-5.7305-13.105-9.332-15.75l-1.1875-0.88672c-3.1094-2.3516-2.7656-10.555-2.4297-16.023 1.3281-0.79297 4.3516-1.4727 6.7109-1.9219 1.3594 1 3.4375 2.2656 6.2383 2.5312 0.19922 0.027344 0.86328 0.050781 1.0664 0.050781 3.5859 0 6.7891-1.7305 8.7461-4.6797 3.2656-4.7891 2.4219-11.699 1.1133-14.957-2.793-6.875-11.133-10.742-18.609-11.32-0.15625-1.1719-0.29297-2.5078-0.36328-3.6523 0.36328 0.070312 0.71484 0.13672 1.0352 0.19922 1.7227 0.37109 3.8672 0.82812 6.2305 0.82812h18.453c0.58594 0 1.2852 0.070312 2.1289 0.15625 4.7227 0.44922 9.2969 0.085937 12.348-1.957 1.9375 0.95703 3.7461 1.0938 4.6172 1.0938 5.2891 0 9.375-3.8672 13.008-7.9453 1.1992 3.4297 2.1094 7.6602 2.043 9.4258-0.37109 2.7383-1.0664 7.832 2.3594 11.77 2 2.3359 4.9023 3.6094 8.1758 3.6094 0.27734 0 1.3594-0.070313 1.6367-0.10156 3.1367-0.40625 5.7969-2.043 7.5195-4.6797 3.3477-5.2148 1.3477-11.727-0.14453-16.559zm-19.133-20.766c-0.070312 0.30078-0.11328 0.60156-0.13672 0.90625-1.293-0.24219-3.0859-0.078125-4.332 0.44922-1.8438 0.77344-3.1875 2.1875-6.1172 5.5742-1.043 1.207-2.543 2.9297-3.6172 4.1016-1.1992-2.6016-3.4453-4.582-5.9805-5.1523-2.3164-0.54297-4.7539 0.27734-6.2969 2.0781-1 1.1641-1.543 2.6016-1.5781 4.0742-0.027344 0.32031-0.050781 0.75-0.035157 1.3359-0.92187 0-2.0781-0.09375-3.1797-0.19141-1.1719-0.12109-2.3086-0.19922-3.2656-0.19922h-18.453c-1 0-2.293-0.27734-3.5742-0.54297-3.5156-0.72266-7.6953-1.0508-10.785 0.30859-7.3398 3.2383-6.0391 12.57-5.082 19.438 0.19141 1.3516 0.37109 2.6094 0.47266 3.7461 0.17188 1.9141 1.1797 3.6523 2.75 4.7461 1.5859 1.0938 3.5586 1.4297 5.4102 0.91406 0.5-0.13672 1.1992-0.20703 1.9453-0.20703 4.1367 0 8.082 2.0234 8.582 3.2656 0.007813 0.035156 0.015625 0.058594 0.027344 0.085938-1.25-0.6875-2.9648-1.2578-4.832-1-0.070313 0.007812-0.89453 0.12891-0.97266 0.14453-6.3945 1.1367-18.309 3.2656-18.918 13.207-0.55078 8.5195-1.3789 21.402 7.5039 28.121l1.293 0.95703c3.4023 2.5 4.125 3.3594 4.0742 4.8516-0.17969 4.7227 1.5859 7.6328 3.0312 10.027 0.49219 0.79297 1.0156 1.6641 1.4727 2.6445 2.3359 5.0742 0.52734 12.621-1.0938 19.273-0.75 3.1289-1.4492 6.1016-1.8008 8.7539-1.0156 7.3594-1.6523 14.992-2.3086 22.727-0.9375 11.492-1.9023 23.289-4.332 34.512-0.82031-0.94922-1.6523-1.9023-2.5078-2.8438-1.3516-1.5078-3.7656-3.3086-7.4766-3.3086-0.71484 0-1.457 0.078125-2.4805 0.19141-0.050781 0.007812-0.10156 0.007812-0.15625 0.015625 0.75-1.8867 2.3516-5.1445 5.7812-10.684l0.66406-1.0938c0.45703-0.77344 1.1289-1.6797 2.1641-3.1016 3.7656-5.1953 9.4609-13.043 3.9102-19.059-0.21484-0.22266-0.48438-0.54297-0.82812-0.97266-2.3867-2.9297-6.4102-7.125-10.949-5.4453-0.69922-0.19922-2.3516-1.9023-3.293-2.8594-1.2305-1.2656-2.4883-2.5742-3.9297-3.4219-5.4375-3.3164-9.3047-1.7852-12.391 0.16406-0.66406 0.42969-1.4492 0.92969-3.1797 1.6016-1.5508 0-3.9961-1.6523-5.7734-2.8516l-1.3711-0.92969c-1.043-0.67188-3.0664-1.25-4.3086-1.25-3.9453 0-7.4258 2.6641-11.262 5.5664-1.3516 1.043-3.3945 2.6094-4.3594 3-0.027343 0.015624-2.4453 0.070312-4.5156-0.15625-2.3164-0.26563-4.5156-0.45703-6.5547-0.21484-2.8945 0.37891-4.1172 0.30859-7.3477-1.8516-0.13672-0.52734 0.050781-2.0938 0.16406-3.043 0.25781-2.1445 0.54297-4.5742-0.16406-6.9688-1.4805-4.9805-6.1094-6.1602-8.6328-6.8047-0.40625-0.10156-1.0664-0.26562-1.5156-0.42969-0.60156-3.4375-1.4375-7.9453-3.0156-11.586-1.6289-3.7305-5.0234-4.9102-7.2539-5.6875-0.58594-0.20703-1.8086-0.63672-2.0352-0.87109-2.6094-3.7461-5.082-4.7109-8.1602-5.625l-1.3164-0.39453c-0.64453-0.21484-1.9805-2.6875-2.3164-6.8398-0.77344-9.1836-15.359-20.055-23.09-22.582-0.085937-0.078125-0.17188-0.14453-0.25-0.19922-1.4141-1.0586-3.4883-1.0156-5.2461-0.71484-0.87891 0.15625-1.7852 0.59375-2.5938 1.1992-0.69922-0.30078-1.4297-0.60156-2.1875-0.92188-2.8516-1.1992-6.3945-2.6797-8.2109-4.1094-0.36328-0.30078-0.88672-0.85156-1.6523-1.6211-6.0547-6.0312-10.141-9.2969-14.387-9.2969-0.95703 0-5.3672 0.29297-6.9609 5.5586-3.2383 0.17969-10.125-1.6094-14.113-2.6289-1.6719-0.44922-3.0664-0.80078-4.3594-1.0859-0.015625-0.13672-0.035157-0.27734-0.042969-0.40625-0.22266-1.9727-0.6875-6.0898-5.4258-8.0898-0.46484-0.19922-0.52734-0.27734-1.0586-1.1367-1.5234-2.457-3.6289-4.7305-8.625-4.7891-1.4141-0.027343-6.3242-2.3945-12.391-7.418-4.7305-3.9102-9.6836-8.1484-13.535-13.285-0.015625-0.035157-0.042969-0.058594-0.058594-0.085938 0.6875-0.14453 1.5352-0.085938 2.4023 0.20703 1.9297 0.66406 4.0586 0.39453 5.7461-0.77344 1.6797-1.1445 2.7227-3.0234 2.8164-5.0664 0.12109-2.7734-0.82031-5.1172-1.6367-7.1836-0.90625-2.3164-1.1719-3.2461-0.83594-3.9102 1.1719-2.3594 3.1367-3.4102 7.7812-4.125 0.89453-0.13672 1.7227-0.50781 2.4453-1.0352 0.87891 0.26562 1.8008 0.36328 2.6875 0.32031 2.1953-0.17969 4.3086-1.8867 5.3672-3.875 0.16406-0.14453 0.30859-0.30078 0.44922-0.47266 0.83594-0.035157 1.6641-0.22266 2.4375-0.58594 1.5664-0.72266 2.7812-2.0352 3.3672-3.6602 0.30078-0.82812 0.67969-1.6211 1.0586-2.4219 0.9375-2 2.4297-5.1602 1.9141-8.2266 2.0508-0.33594 3.832-1.6523 4.7539-3.5742 0.69922-1.4492 1.3281-3.1172 2.0156-5.1875 0.29297-0.84375 0.55078-1.6289 0.84375-2.3086 0.66406-1.5352 1.9219-2.9531 3.9648-4.4883 2.1289-1.6016 3.0156-4.2812 2.3945-6.7461 0.54297-1.6016 0.44922-3.3867-0.32812-4.9453-0.79297-1.5938-2.1875-2.7656-3.832-3.293-0.47266-1.5078-1.4648-2.7578-2.75-3.5586-0.17969-0.62109-0.44922-1.207-0.80078-1.7422 0.015625-0.30078 0.015625-0.60156-0.007813-0.90625 1.8945-1.1641 3.0312-2.8945 3.0312-5.1367 0.015625-0.20703 0.027344-0.41406 0.027344-0.62109 0.007812-0.058594 0.007812-0.11328 0.015625-0.17188 0.12109-1.207 0.46484-2.4023 0.70703-3.3438 0.007813-0.035157 0.24219-0.90625 0.25781-0.94922 1.3281-5.3398 0.65625-11.535 0.050781-17.145l-0.27734-2.293c0-0.39453-0.042968-0.83594-0.11328-1.2227h-0.015625c-0.042969-0.20703-0.10156-0.42188-0.17188-0.62891 0-0.36328-0.035156-0.72266-0.10156-1.0781-0.26562-1.4922-0.62891-2.9648-1.0508-4.5508-0.34375-1.293-0.67969-2.543-0.89453-3.7227 2.2305-1.4492 7.1172-4.7461 5.6328-11.164-0.38672-1.6641-1.3164-3.2227-2.6875-5.4102-0.5-0.79297-1.2148-1.9375-1.7148-2.5938 1.543-1.0938 2.6016-2.7148 3.043-4.6445 1.3086-5.3828-2.0664-12.75-4.2461-15.199-1.3164-1.4727-2.1953-3.5312-3.1367-5.6953-1.1875-2.7734-2.5156-5.8945-5.0469-8.4414 0.32031-0.50781 0.74219-1.0664 0.94922-1.3438 0.042969-0.050782 0.55078-0.72266 0.59375-0.78516 0.55859-0.78516 0.95703-1.5938 1.2305-2.3711 1.7656 0.27734 3.5508-0.21484 4.9453-1.3281 7.2891-5.7734 11.133-12.242 11.012-18.316 0.11328 0.10156 0.21484 0.21484 0.30859 0.32812 1.8359 2.0664 4.7812 2.75 7.332 1.6797 2.5508-1.0664 4.1445-3.6367 3.9531-6.3945-0.17969-2.6953-0.66406-7.0117-1.3711-9.9336 1.7422-1.6875 6.1094-4.5664 8.3047-6.0117 4.4531-2.9297 6.2383-4.1875 7.3672-5.7383 0.87109-1.1992 1.7148-2.6797 2.5664-4.2461 1.2852-2.3242 2.7305-4.9609 4.3164-5.6445 0.34375-0.12891 1.4219-0.26562 2.1719-0.36328 3.2734-0.42969 7.7539-1.0234 9.7773-5.0586 2.0508-4.1094 0.62891-7.3164-0.47266-9.3477 0.36328-1.1992 0.67188-2.4648 0.98047-3.7305 0.58594-2.3359 1.1367-4.5391 1.9648-6.332 0.57812-1.2578 0.72266-2.6016 0.5-3.8594 2.8516-2.6523 2.4453-6.7031 2.2578-8.6328l-0.19141-0.45703c0.36328-0.54297 2.0664-1.4297 2.8789-1.8516 0.82031-0.42188 1.8711-1.0078 2.3789-1.3789 1.2227-0.88672 2.0156-1.9141 2.3945-3.3789 0.82031-1.9219 5.6328-6.8398 8.0469-8.3398 0.63672 0.14453 1.3281 0.42188 2.0664 0.75781-1.1016 1.8516-1.2578 4.2148-0.19922 6.2734 0.52734 1.0156 1.6953 2.4297 2.6641 3.043 1.5664 1.0078 3.5156 1.2734 5.3086 0.75781 2.3438-0.6875 4.1367-2.4883 6.375-6.418 0.48438-0.83594 0.75-1.75 0.82812-2.6641 0.64453-0.63672 1.1719-1.4062 1.5234-2.207l0.71484-1.707c1.6367-4.375 2.5859-4.375 4.2891-4.375 1.6289 0 3.9102 0.36328 6.7969 0.86328 10.797 1.6953 16.75-2.9297 22.797-7.7891 2.0234-1.6094 4.1172-3.2812 6.5469-4.7305 1.0508-0.62891 2.5078-1.2578 4.0508-1.9375 5.3594-2.3711 12.699-5.6094 14.82-11.664 0.27734-0.78516 0.51562-1.75 0.57812-2.8672 1 0.058593 1.9805-0.15625 2.9023-0.53516 1.6211-0.67969 3.0078-2.0664 3.6367-3.7031 1.7305-0.78516 3.2383-1.1875 4.4961-1.1875 0.99219 0 2.3789 0.20703 4.3438 1.8438 1.9297 1.6016 2.1445 2.5 2.1641 2.5-0.4375 2.0156-8.8047 5.625-12.406 7.1758-6.1445 2.6367-10.027 4.4297-12.121 7.1172-1.4492 1.8438-2.4141 3.8672-3.2734 5.668-0.87109 1.8281-1.6875 3.5664-2.75 4.5586-0.20703 0.19141-1.1797 0.48437-2.0234 0.74219-1.6211 0.52734-3.832 1.2422-5.5898 3.2461-4.2148 4.7969-8.0977 11.578-10.141 15.914-2.457 5.1875-3.3594 10.32-4.2383 15.379-0.41406 2.4023-0.85156 4.8867-1.4648 7.3477-1.2305 4.8164-4.5586 11.305-8.6758 16.93-1.6719 2.2812-1.6641 5.3945 0.027344 7.668 1.6797 2.2734 4.668 3.1953 7.332 2.25 0.4375-0.15625 0.87891-0.32812 1.3086-0.51562 0.97266 1.3008 2.4297 2.2148 4.1016 2.5 0.49219 1.1211 0.89453 3.5312 1.1367 4.9023 0.58594 3.4531 1.2578 7.3672 3.5156 10.234 4.8242 6.1523 5.6953 8.6172 3.1289 15.473-6.0039 16.121 1.0664 20.773 4.4102 22.031 1.0156 0.37891 1.2852 0.80859 2.1094 3.3242 0.91406 2.8359 2.457 7.582 8.5195 9.0039 0.5 0.12109 1.8516 0.26562 2.3516 0.26562 1.9453 0 3.6875-0.5 5.3594-1.0234 0.78516-0.25 1.5352-0.49219 2.6289-0.57812 1.207 0 2.6719 0.42969 4.4609 0.96484 1.9219 0.57812 4.0938 1.2305 6.6172 1.2305 0.17969 0 1.1562-0.042969 1.3359-0.058594 2.5938-0.22266 4.8242-1.1367 6.6172-1.8789 1.6211-0.66406 3.0156-1.2305 4.0938-1.2305 0.87109 0.015625 1.8594 0.62109 3.4102 1.6211 1.5586 0.99219 3.3242 2.1094 5.5234 2.6289 0.50781 0.12109 1.5859 0.24219 2.0938 0.24219 1.1797 0 2.2305-0.21484 3.0742-0.80078 1.457 1.2852 2.8242 3.6875 4.4297 6.4805 0.70703 1.2305 1.4062 2.4219 2.0781 3.3945 1.7578 2.6172 3.5156 5.4102 5.668 9.0625 2.1445 3.6445 4.125 5.0898 7.9258 5.7383 0.51562 0.085937 1.1211 0.17969 1.8711 0.38672 2.6289 0.75 5.7461 0.54297 9.1328-0.14453 2.4805-0.49219 5.5156-0.69922 7.4336 0.085938l0.015625-0.027344c2.8789 1.0859 5.4258 0.37891 8.668-0.57812 0.82031-0.23438 1.5781-0.51562 2.1445-0.57031l2.2305-0.027343c4.4102-0.050781 8.9688-0.10156 14.234-3.0859 1.2148 0 2.7227 0.78516 3.4648 2.0664-0.33594 0.67969-1.0938 1.5352-2.0156 2.5664-1.5938 1.8281-3.5742 4.0938-4.1523 7.2109-0.29297 1.4727-0.34375 2.7578-0.37109 4.1602 0 0.41406-0.007812 1.1133-0.015625 1.207 0 0-0.15625 0.22266-0.70703 0.59375-5.5312 3.7734-5.8242 12.086-5.6328 21.703l0.007812 0.90625c0.027344 1.6953 0.058594 3.1797-0.058594 4.4023-0.49219 5.418 0.82031 10.754 2.1211 16.066 0.52734 2.1445 1.0664 4.3516 1.4492 6.5312 0.61328 3.4961 3.1445 6.6406 5.7188 9.8477 1.4492 1.7852 4.1367 5.1094 4.1445 6.2305-0.46484 1.5234-3.0508 3.4102-5.2969 5.0469-3.2734 2.3594-6.9883 5.0391-8.7031 9.2188-0.77344 1.8711-0.41406 4.0156 0.61328 5.7539 1.0234 1.7422 3.0156 2.9219 5.0234 3.1523 2.4141 0.27734 8.2539 6.0664 10.684 9.8047-0.14844 0.33984-0.23437 0.69531-0.3125 1.0547z"/>
  <use x="70" y="689.230469" xlink:href="#n"/>
  <use x="101.613281" y="689.230469" xlink:href="#i"/>
  <use x="122.859375" y="689.230469" xlink:href="#a"/>
  <use x="152.074219" y="689.230469" xlink:href="#e"/>
  <use x="181.140625" y="689.230469" xlink:href="#h"/>
  <use x="201.734375" y="689.230469" xlink:href="#a"/>
  <use x="230.949219" y="689.230469" xlink:href="#d"/>
  <use x="276.78125" y="689.230469" xlink:href="#c"/>
  <use x="307.617188" y="689.230469" xlink:href="#g"/>
  <use x="350.695312" y="689.230469" xlink:href="#b"/>
  <use x="393.5625" y="689.230469" xlink:href="#m"/>
  <use x="423.15625" y="689.230469" xlink:href="#f"/>
  <use x="453.820312" y="689.230469" xlink:href="#e"/>
  <use x="482.890625" y="689.230469" xlink:href="#l"/>
  <use x="527.777344" y="689.230469" xlink:href="#a"/>
  <use x="556.992188" y="689.230469" xlink:href="#d"/>
  <use x="602.824219" y="689.230469" xlink:href="#b"/>
  <use x="645.691406" y="689.230469" xlink:href="#c"/>
  <use x="70" y="732.308594" xlink:href="#k"/>
  <use x="220.054688" y="732.308594" xlink:href="#f"/>
  <use x="519.320312" y="732.308594" xlink:href="#j"/>
 </g>
</svg>
