<?xml version="1.0" encoding="UTF-8"?>
<svg width="700pt" height="700pt" version="1.1" viewBox="0 0 700 700" xmlns="http://www.w3.org/2000/svg">
 <g>
  <path d="m350 35c-64.977 0-127.29 25.812-173.24 71.758-45.945 45.949-71.758 108.27-71.758 173.24s25.812 127.29 71.758 173.24c45.949 45.945 108.27 71.758 173.24 71.758s127.29-25.812 173.24-71.758c45.945-45.949 71.758-108.27 71.758-173.24-0.070312-64.957-25.902-127.23-71.836-173.16-45.93-45.934-108.21-71.766-173.16-71.836zm0 455c-55.695 0-109.11-22.125-148.49-61.508-39.383-39.383-61.508-92.797-61.508-148.49s22.125-109.11 61.508-148.49c39.383-39.383 92.797-61.508 148.49-61.508s109.11 22.125 148.49 61.508c39.383 39.383 61.508 92.797 61.508 148.49-0.058594 55.676-22.203 109.05-61.574 148.43-39.371 39.371-92.75 61.516-148.43 61.574z"/>
  <path d="m425.13 206.38-110.13 110.12-40.129-40.129v0.003906c-4.4453-4.293-10.824-5.9258-16.785-4.293-5.957 1.6367-10.613 6.293-12.25 12.25-1.6328 5.9609 0 12.34 4.293 16.785l52.5 52.5c3.2812 3.2812 7.7305 5.125 12.371 5.125s9.0898-1.8438 12.371-5.125l122.5-122.5c4.293-4.4453 5.9258-10.824 4.293-16.785-1.6367-5.957-6.293-10.613-12.25-12.25-5.9609-1.6328-12.34 0-16.785 4.293z"/>
 </g>
</svg>
